<?xml version="1.0" encoding="utf-8"?>
<!-- Generator: Adobe Illustrator 24.1.0, SVG Export Plug-In . SVG Version: 6.00 Build 0)  -->
<svg version="1.1" id="Layer_1" xmlns="http://www.w3.org/2000/svg" xmlns:xlink="http://www.w3.org/1999/xlink" x="0px" y="0px"
	 viewBox="0 0 500.82 500.82" style="enable-background:new 0 0 500.82 500.82;" xml:space="preserve">
<path d="M413.93,223.33c-13.27-13.21-30.5-19.92-51.45-19.92c-11.87,0-21.42-8.09-21.42-18.15s9.55-17.95,21.42-17.95h21.42
	c14.2,0,26.08-4.73,35.62-14c7.68-7.3,11.41-15.98,11.41-25.84h-68.45c-18.86,0-35.16,5.72-48.43,16.96
	c-6.17,5.23-10.88,10.97-14.15,17.22c-3.77,7.19-5.64,15.06-5.64,23.61c0,14.59,5.59,27.22,16.76,38.06
	c3.3,3.2,6.92,6.03,10.84,8.51c5.74,3.63,12.14,6.46,19.2,8.46c6.75,1.97,13.97,2.96,21.42,2.96c11.87,0,21.42,8.09,21.42,18.15
	c0,10.06-9.55,18.15-21.42,18.15h-21.42c-12.81,0-23.98,3.94-33.06,11.64c-9.08,7.69-13.74,17.16-13.74,28.01h68.22
	c18.86,0,35.16-5.72,48.43-16.96c13.27-11.24,20.02-24.85,20.02-40.83C430.93,246.8,425.34,234.17,413.93,223.33z"/>
<g>
	<path d="M158.89,321.67c-1.21-1.36-2.48-2.61-3.8-3.72c-1.32-1.11-2.68-2.1-4.1-2.96c-1.42-0.86-2.88-1.6-4.39-2.2
		c-0.5-0.2-1.01-0.39-1.52-0.56c-3.08-1.04-6.34-1.57-9.76-1.57l0,0h-4.83l0,0h-10.28c-0.12,0-0.25,0-0.37,0
		c-6.81-0.05-12.28-5.66-12.28-12.48v-43.15v-37.71v-86.75c0-8.9-3.94-16.53-11.64-22.73c-7.25-5.84-16.07-9-26.15-9.34
		c-0.62-0.02-1.24-0.03-1.86-0.03v215.01c0,8.74,3.94,16.37,11.64,22.57c0.41,0.33,0.82,0.64,1.23,0.95
		c3.79,2.83,7.99,4.95,12.55,6.36c8.31,3.2,17.26,4.81,26.88,4.81h10.28l0,0h38.35l0,0C168.85,337.91,165.53,328.95,158.89,321.67z"
		/>
</g>
<path d="M130.49,401.82c11.04,0,20.51-3.94,28.2-11.64c7.69-7.69,11.64-17.16,11.64-28.01v-7.96h-39.84V401.82z"/>
<path d="M318.63,236.94c-4.26-2.69-8.23-5.81-11.81-9.27c-12.35-11.98-18.6-26.25-18.6-42.41c0-9.51,2.13-18.4,6.33-26.41
	c0.33-0.64,0.7-1.27,1.06-1.9c-0.47-0.49-0.93-0.99-1.41-1.47c-18.74-18.74-41.22-28.01-67.85-28.01
	c-26.43,0-49.11,9.27-67.85,28.01s-28.01,41.22-28.01,67.85v81.29l4.83,0c10.79,0,20.5,4.51,28.08,13.04
	c2.83,3.1,5.14,6.47,6.93,10.09V227.3h-12.64v-6h12.69c0.46-14.7,5.95-27.25,16.32-37.62c10.07-10.25,22.19-15.73,36.34-16.46
	v-11.27h6v11.23c14.41,0.61,26.74,6.09,36.95,16.49c10.37,10.37,15.86,22.92,16.32,37.62h12.07v6h-12.17
	c-0.87,13.86-6.31,25.76-16.22,35.67c-10.22,10.22-22.54,15.69-36.95,16.3v13.38h-6v-13.31h-1.82c-11.04,0-20.51,3.94-28.2,11.64
	c-7.69,7.69-11.44,17.16-11.64,28.2h44.97c10.26,0,20.12-1.58,29.58-4.54c14.79-4.93,27.41-12.82,38.26-23.47
	c15.06-15.06,23.98-32.68,26.91-52.74C320.27,237.95,319.44,237.45,318.63,236.94z"/>
<path d="M223.04,180.65c-21.62,1.55-38.89,18.98-40.21,40.66h40.21V180.65z"/>
<path d="M269.47,227.3h-40.44v39.99C250.55,265.88,267.83,248.75,269.47,227.3z"/>
<path d="M182.88,227.3c1.63,21.36,18.77,38.43,40.16,39.97V227.3H182.88z"/>
<path d="M269.52,221.3c-1.32-21.78-18.74-39.25-40.49-40.68v40.68H269.52z"/>
<g>
	<g>
		<path d="M182.47,331.68h4.03v18.27h11.34v3.41h-15.36V331.68z"/>
		<path d="M218.12,349.99v3.38h-16.26v-21.68h15.83v3.38h-11.8v5.64h10.47v3.31h-10.47v5.98H218.12z"/>
		<path d="M242.71,331.68v21.68h-3.31l-11.96-14.68v14.68h-4v-21.68h3.31l11.96,14.68v-14.68H242.71z"/>
		<path d="M268.64,331.68v21.68h-3.31l-11.96-14.68v14.68h-4v-21.68h3.31l11.96,14.68v-14.68H268.64z"/>
		<path d="M289.36,348.34h-10.84l-2.14,5.02h-4.15l9.76-21.68h3.96l9.79,21.68h-4.21L289.36,348.34z M288.03,345.19l-4.09-9.48
			l-4.06,9.48H288.03z"/>
		<path d="M313.52,353.36l-4.43-6.35c-0.28,0.03-0.56,0.03-0.84,0.03h-4.89v6.32h-4.03v-21.68h8.92c5.7,0,9.23,2.91,9.23,7.71
			c0,3.28-1.67,5.7-4.61,6.85l4.99,7.12H313.52z M308.07,335.09h-4.71v8.64h4.71c3.53,0,5.36-1.61,5.36-4.34
			S311.6,335.09,308.07,335.09z"/>
		<path d="M350.34,339.39c0,4.77-3.53,7.71-9.23,7.71h-4.89v6.26h-4.03v-21.68h8.92C346.81,331.68,350.34,334.59,350.34,339.39z
			 M346.28,339.39c0-2.73-1.83-4.31-5.36-4.31h-4.71v8.61h4.71C344.46,343.7,346.28,342.12,346.28,339.39z"/>
		<path d="M369.39,353.36l-4.43-6.35c-0.28,0.03-0.56,0.03-0.84,0.03h-4.89v6.32h-4.03v-21.68h8.92c5.7,0,9.23,2.91,9.23,7.71
			c0,3.28-1.67,5.7-4.61,6.85l4.99,7.12H369.39z M363.94,335.09h-4.71v8.64h4.71c3.53,0,5.36-1.61,5.36-4.34
			S367.47,335.09,363.94,335.09z"/>
		<path d="M378.68,331.68h4.03v21.68h-4.03V331.68z"/>
		<path d="M408.66,331.68v21.68h-3.31l-11.96-14.68v14.68h-4v-21.68h3.31l11.96,14.68v-14.68H408.66z"/>
		<path d="M419.72,335.09h-7.19v-3.41h18.4v3.41h-7.19v18.27h-4.03V335.09z"/>
		<path d="M180.65,388.24l1.39-3.13c1.73,1.39,4.49,2.38,7.15,2.38c3.38,0,4.8-1.21,4.8-2.82c0-4.68-12.88-1.61-12.88-9.66
			c0-3.5,2.79-6.47,8.73-6.47c2.6,0,5.33,0.68,7.22,1.92l-1.27,3.13c-1.95-1.15-4.09-1.7-5.98-1.7c-3.35,0-4.71,1.3-4.71,2.94
			c0,4.62,12.85,1.61,12.85,9.57c0,3.47-2.82,6.44-8.77,6.44C185.82,390.84,182.44,389.79,180.65,388.24z"/>
		<path d="M219.05,387.15v3.38h-16.26v-21.68h15.83v3.38h-11.8v5.64h10.47v3.31h-10.47v5.98H219.05z"/>
		<path d="M238.56,390.53l-4.43-6.35c-0.28,0.03-0.56,0.03-0.84,0.03h-4.89v6.32h-4.03v-21.68h8.92c5.7,0,9.23,2.91,9.23,7.71
			c0,3.28-1.67,5.7-4.61,6.85l4.99,7.12H238.56z M233.11,372.25h-4.71v8.64h4.71c3.53,0,5.36-1.61,5.36-4.34
			C238.47,373.83,236.64,372.25,233.11,372.25z"/>
		<path d="M267.68,368.85l-9.45,21.68h-3.96l-9.48-21.68h4.37l7.22,16.73l7.28-16.73H267.68z"/>
		<path d="M270.81,368.85h4.03v21.68h-4.03V368.85z"/>
		<path d="M279.97,379.69c0-6.47,4.96-11.15,11.61-11.15c3.53,0,6.57,1.27,8.58,3.62l-2.6,2.45c-1.58-1.7-3.53-2.54-5.79-2.54
			c-4.49,0-7.74,3.16-7.74,7.62c0,4.46,3.25,7.62,7.74,7.62c2.26,0,4.21-0.84,5.79-2.57l2.6,2.48c-2.01,2.35-5.05,3.62-8.61,3.62
			C284.93,390.84,279.97,386.16,279.97,379.69z"/>
		<path d="M321.13,387.15v3.38h-16.26v-21.68h15.83v3.38h-11.8v5.64h10.47v3.31H308.9v5.98H321.13z"/>
		<path d="M324.63,388.24l1.39-3.13c1.73,1.39,4.49,2.38,7.15,2.38c3.38,0,4.8-1.21,4.8-2.82c0-4.68-12.88-1.61-12.88-9.66
			c0-3.5,2.79-6.47,8.73-6.47c2.6,0,5.33,0.68,7.22,1.92l-1.27,3.13c-1.95-1.15-4.09-1.7-5.98-1.7c-3.34,0-4.71,1.3-4.71,2.94
			c0,4.62,12.85,1.61,12.85,9.57c0,3.47-2.82,6.44-8.77,6.44C329.81,390.84,326.43,389.79,324.63,388.24z"/>
	</g>
</g>
</svg>
