<?xml version="1.0" encoding="utf-8"?>
<!-- Generator: Adobe Illustrator 24.1.0, SVG Export Plug-In . SVG Version: 6.00 Build 0)  -->
<svg version="1.1" id="Layer_1" xmlns="http://www.w3.org/2000/svg" xmlns:xlink="http://www.w3.org/1999/xlink" x="0px" y="0px"
	 viewBox="0 0 500.82 500.82" style="enable-background:new 0 0 500.82 500.82;" xml:space="preserve">
<style type="text/css">
	.st0{fill:#FFF200;}
	.st1{fill:#ED2024;}
	.st2{fill:#00AEEF;}
	.st3{fill:#EC008C;}
	.st4{fill:none;}
	.st5{fill:#2E3192;}
</style>
<g>
	<path class="st0" d="M413.89,223.67c-13.23-13.17-30.41-19.86-51.3-19.86c-11.84,0-21.35-8.06-21.35-18.09s9.52-17.89,21.35-17.89
		h21.35c14.16,0,26-4.72,35.51-13.96c7.66-7.28,11.37-15.93,11.37-25.76h-68.24c-18.8,0-35.05,5.7-48.28,16.91
		c-6.15,5.21-10.85,10.93-14.11,17.17c14.86,17.39,22.23,37.79,22.23,61.49c0,2.87-0.12,5.7-0.34,8.48
		c5.73,3.61,12.1,6.44,19.14,8.43c6.73,1.97,13.93,2.95,21.35,2.95c11.84,0,21.35,8.06,21.35,18.09c0,10.03-9.52,18.09-21.35,18.09
		h-21.35c-12.77,0-23.91,3.93-32.96,11.6c-9.05,7.67-13.7,17.11-13.7,27.92h68.01c18.8,0,35.05-5.7,48.28-16.91
		c13.23-11.21,19.96-24.78,19.96-40.7C430.83,247.07,425.26,234.48,413.89,223.67z"/>
	<path class="st1" d="M300.2,162.18c-3.76,7.17-5.62,15.02-5.62,23.54c0,14.55,5.57,27.13,16.71,37.95c3.29,3.19,6.9,6.02,10.8,8.48
		c0.22-2.78,0.34-5.61,0.34-8.48C322.43,199.98,315.06,179.58,300.2,162.18z"/>
	<path class="st2" d="M121.06,310.73c-0.12,0-0.25,0-0.37,0c-6.79-0.05-12.24-5.65-12.24-12.44v-43.02v-37.59V131.2
		c0-8.87-3.93-16.48-11.6-22.66c-7.23-5.82-16.03-8.97-26.07-9.31c-0.61-0.02-1.23-0.03-1.85-0.03v214.36
		c0,8.71,3.93,16.32,11.6,22.5c0.4,0.33,0.82,0.64,1.23,0.95c3.78,2.82,7.96,4.94,12.51,6.34c8.28,3.19,17.21,4.79,26.8,4.79h10.24
		v-37.41H121.06z"/>
	<g>
		<g>
			<path d="M184.57,332.51h4.01v18.19h11.28v3.39h-15.29V332.51z"/>
			<path d="M220.06,350.73v3.36h-16.19v-21.58h15.75v3.36h-11.75v5.61h10.42v3.3h-10.42v5.95H220.06z"/>
			<path d="M244.54,332.51v21.58h-3.3l-11.9-14.61v14.61h-3.98v-21.58h3.3l11.9,14.61v-14.61H244.54z"/>
			<path d="M270.34,332.51v21.58h-3.3l-11.9-14.61v14.61h-3.98v-21.58h3.3l11.9,14.61v-14.61H270.34z"/>
			<path d="M290.97,349.09h-10.79l-2.13,4.99h-4.13l9.71-21.58h3.95l9.74,21.58h-4.19L290.97,349.09z M289.64,345.95l-4.07-9.43
				l-4.04,9.43H289.64z"/>
			<path d="M315.01,354.09l-4.41-6.32c-0.28,0.03-0.55,0.03-0.83,0.03h-4.87v6.29h-4.01v-21.58h8.88c5.67,0,9.19,2.9,9.19,7.68
				c0,3.27-1.66,5.67-4.59,6.81l4.96,7.09H315.01z M309.59,335.9h-4.69v8.6h4.69c3.51,0,5.33-1.6,5.33-4.32
				C314.92,337.47,313.1,335.9,309.59,335.9z"/>
			<path d="M351.67,340.18c0,4.75-3.51,7.68-9.19,7.68h-4.87v6.23h-4.01v-21.58h8.88C348.16,332.51,351.67,335.4,351.67,340.18z
				 M347.63,340.18c0-2.71-1.82-4.29-5.33-4.29h-4.69v8.57h4.69C345.81,344.47,347.63,342.9,347.63,340.18z"/>
			<path d="M370.63,354.09l-4.41-6.32c-0.28,0.03-0.55,0.03-0.83,0.03h-4.87v6.29h-4.01v-21.58h8.88c5.67,0,9.19,2.9,9.19,7.68
				c0,3.27-1.66,5.67-4.59,6.81l4.96,7.09H370.63z M365.2,335.9h-4.69v8.6h4.69c3.51,0,5.33-1.6,5.33-4.32
				C370.54,337.47,368.72,335.9,365.2,335.9z"/>
			<path d="M379.88,332.51h4.01v21.58h-4.01V332.51z"/>
			<path d="M409.72,332.51v21.58h-3.3l-11.9-14.61v14.61h-3.98v-21.58h3.3l11.9,14.61v-14.61H409.72z"/>
			<path d="M420.73,335.9h-7.15v-3.39h18.31v3.39h-7.15v18.19h-4.01V335.9z"/>
			<path d="M182.75,388.8l1.39-3.11c1.73,1.39,4.47,2.37,7.12,2.37c3.36,0,4.78-1.2,4.78-2.81c0-4.66-12.83-1.6-12.83-9.62
				c0-3.48,2.77-6.44,8.69-6.44c2.59,0,5.3,0.68,7.18,1.91l-1.26,3.11c-1.94-1.14-4.07-1.7-5.95-1.7c-3.33,0-4.69,1.3-4.69,2.93
				c0,4.59,12.79,1.6,12.79,9.53c0,3.45-2.81,6.41-8.73,6.41C187.9,391.39,184.54,390.34,182.75,388.8z"/>
			<path d="M220.98,387.72v3.36h-16.19V369.5h15.75v3.36H208.8v5.61h10.42v3.3H208.8v5.95H220.98z"/>
			<path d="M240.4,391.08l-4.41-6.32c-0.28,0.03-0.55,0.03-0.83,0.03h-4.87v6.29h-4.01V369.5h8.88c5.67,0,9.19,2.9,9.19,7.68
				c0,3.27-1.66,5.67-4.59,6.81l4.96,7.09H240.4z M234.98,372.89h-4.69v8.6h4.69c3.51,0,5.33-1.6,5.33-4.32
				C240.31,374.47,238.49,372.89,234.98,372.89z"/>
			<path d="M269.38,369.5l-9.4,21.58h-3.95l-9.43-21.58h4.35l7.18,16.65l7.24-16.65H269.38z"/>
			<path d="M272.5,369.5h4.01v21.58h-4.01V369.5z"/>
			<path d="M281.62,380.29c0-6.44,4.93-11.1,11.56-11.1c3.51,0,6.54,1.26,8.54,3.61l-2.59,2.44c-1.57-1.7-3.51-2.53-5.77-2.53
				c-4.47,0-7.71,3.14-7.71,7.58c0,4.44,3.24,7.58,7.71,7.58c2.25,0,4.19-0.83,5.77-2.56l2.59,2.47c-2,2.34-5.03,3.61-8.57,3.61
				C286.56,391.39,281.62,386.74,281.62,380.29z"/>
			<path d="M322.6,387.72v3.36h-16.19V369.5h15.75v3.36h-11.75v5.61h10.42v3.3h-10.42v5.95H322.6z"/>
			<path d="M326.08,388.8l1.39-3.11c1.73,1.39,4.47,2.37,7.12,2.37c3.36,0,4.78-1.2,4.78-2.81c0-4.66-12.83-1.6-12.83-9.62
				c0-3.48,2.77-6.44,8.69-6.44c2.59,0,5.3,0.68,7.18,1.91l-1.26,3.11c-1.94-1.14-4.07-1.7-5.95-1.7c-3.33,0-4.69,1.3-4.69,2.93
				c0,4.59,12.79,1.6,12.79,9.53c0,3.45-2.81,6.41-8.73,6.41C331.23,391.39,327.87,390.34,326.08,388.8z"/>
		</g>
	</g>
	<path class="st2" d="M224.83,181.03c-22.37,0.96-40.4,18.96-41.39,41.33h41.39V181.03z"/>
	<path d="M269.96,226.17h-41.33v41.39C251,266.57,269.01,248.55,269.96,226.17z"/>
	<path class="st0" d="M183.44,226.17c0.96,22.39,19,40.43,41.39,41.39v-41.39H183.44z"/>
	<path class="st3" d="M269.96,222.36c-0.99-22.34-18.98-40.33-41.32-41.32v41.32H269.96z"/>
	<polygon class="st4" points="228.4,158.05 225,158.05 224.99,158.07 228.42,158.07 	"/>
	<path class="st3" d="M311.29,223.67c-11.14-10.81-16.71-23.4-16.71-37.95c0-8.52,1.86-16.37,5.62-23.54
		c-1.79-2.09-3.68-4.15-5.69-6.15c-18.68-18.68-41.1-27.92-67.64-27.92c-26.35,0-48.96,9.24-67.64,27.92
		c-18.68,18.68-27.92,41.1-27.92,67.64v87.07h4.81c9.1,0,17.04,3.72,23.5,10.98c6.62,7.26,9.93,16.19,9.93,26.43h-38.24v53.48
		c11.01,0,20.45-3.93,28.12-11.6c7.67-7.67,11.6-17.11,11.6-27.92V226.17h-10.74v-3.81h10.76c0.3-14.96,5.79-27.71,16.3-38.21
		c10.34-10.52,22.83-16.01,37.48-16.48l0.04-9.59h0.12l0.01-0.02h3.4l0.02,0.02h0.25v9.59c14.75,0.41,27.33,5.9,37.73,16.49
		c10.51,10.51,16,23.25,16.3,38.21h10.49v3.81h-10.52c-0.56,14.45-6.04,26.79-16.26,37.02c-10.4,10.4-22.99,15.89-37.75,16.29v11.77
		h-3.81v-11.74h-3.07c-11.01,0-20.45,3.93-28.12,11.6c-7.67,7.67-11.4,17.11-11.6,28.12h44.83c10.22,0,20.06-1.57,29.49-4.52
		c14.75-4.92,27.33-12.78,38.15-23.4c16.64-16.64,25.79-36.41,27.59-59.16C318.19,229.68,314.59,226.86,311.29,223.67z"/>
	<g>
		<path class="st5" d="M159.62,321.71c-6.45-7.26-14.4-10.98-23.5-10.98h-4.81v37.41h38.24
			C169.54,337.9,166.23,328.97,159.62,321.71z"/>
	</g>
</g>
</svg>
