<?xml version="1.0" encoding="utf-8"?>
<!-- Generator: Adobe Illustrator 24.1.0, SVG Export Plug-In . SVG Version: 6.00 Build 0)  -->
<svg version="1.1" id="Layer_1" xmlns="http://www.w3.org/2000/svg" xmlns:xlink="http://www.w3.org/1999/xlink" x="0px" y="0px"
	 viewBox="0 0 500.82 500.82" style="enable-background:new 0 0 500.82 500.82;" xml:space="preserve">
<style type="text/css">
	.st0{fill:#E3E3E3;}
	.st1{fill:#4D4D4D;}
	.st2{fill:#1C1C1C;}
	.st3{fill:#B2B2B2;}
	.st4{fill:#696969;}
</style>
<path class="st0" d="M413.31,223.79c-13.22-13.17-30.39-19.85-51.26-19.85c-11.83,0-21.34-8.06-21.34-18.08
	c0-10.02,9.51-17.88,21.34-17.88h21.34c14.15,0,25.98-4.72,35.49-13.95c7.65-7.27,11.37-15.92,11.37-25.74h-68.2
	c-18.79,0-35.03,5.7-48.25,16.9c-6.15,5.21-10.84,10.93-14.1,17.15c14.85,17.38,22.22,37.77,22.22,61.44c0,2.87-0.12,5.69-0.34,8.47
	c5.72,3.61,12.09,6.44,19.13,8.42c6.73,1.96,13.92,2.95,21.34,2.95c11.83,0,21.34,8.06,21.34,18.08c0,10.02-9.51,18.08-21.34,18.08
	H340.7c-12.76,0-23.89,3.93-32.94,11.59c-9.05,7.66-13.69,17.1-13.69,27.9h67.97c18.79,0,35.03-5.7,48.25-16.9
	c13.22-11.2,19.95-24.76,19.95-40.68C430.24,247.18,424.67,234.6,413.31,223.79z"/>
<path class="st1" d="M299.69,162.35c-3.75,7.17-5.61,15.01-5.61,23.52c0,14.54,5.57,27.12,16.7,37.92c3.29,3.19,6.89,6.01,10.8,8.47
	c0.22-2.78,0.34-5.6,0.34-8.47C321.91,200.12,314.54,179.73,299.69,162.35z"/>
<path class="st2" d="M159.2,321.77c-6.45-7.25-14.39-10.97-23.48-10.97h-4.81v37.38h38.21C169.12,337.95,165.82,329.03,159.2,321.77
	z"/>
<path class="st3" d="M120.67,310.8c-0.12,0-0.25,0-0.37,0c-6.79-0.05-12.23-5.64-12.23-12.43v-42.99v-37.57v-86.43
	c0-8.87-3.93-16.47-11.59-22.64c-7.22-5.82-16.02-8.96-26.05-9.31c-0.61-0.02-1.23-0.03-1.85-0.03v214.22
	c0,8.71,3.93,16.31,11.59,22.48c0.4,0.33,0.82,0.64,1.23,0.95c3.78,2.82,7.96,4.93,12.5,6.34c8.28,3.19,17.2,4.79,26.78,4.79h10.24
	V310.8H120.67z"/>
<g>
	<g>
		<path d="M184.84,333.42h4.01v18.18h11.28v3.39h-15.28V333.42z"/>
		<path d="M220.31,351.62v3.36h-16.18v-21.57h15.74v3.36h-11.74v5.61h10.41v3.3h-10.41v5.95H220.31z"/>
		<path d="M244.77,333.42v21.57h-3.3l-11.89-14.6v14.6h-3.97v-21.57h3.3l11.89,14.6v-14.6H244.77z"/>
		<path d="M270.56,333.42v21.57h-3.3l-11.89-14.6v14.6h-3.97v-21.57h3.3l11.89,14.6v-14.6H270.56z"/>
		<path d="M291.17,349.99h-10.78l-2.13,4.99h-4.13l9.7-21.57h3.94l9.74,21.57h-4.19L291.17,349.99z M289.84,346.85l-4.07-9.43
			l-4.04,9.43H289.84z"/>
		<path d="M315.2,354.98l-4.41-6.32c-0.28,0.03-0.55,0.03-0.83,0.03h-4.87v6.29h-4.01v-21.57h8.87c5.67,0,9.18,2.9,9.18,7.67
			c0,3.27-1.66,5.67-4.59,6.81l4.96,7.09H315.2z M309.78,336.8h-4.68v8.6h4.68c3.51,0,5.33-1.6,5.33-4.31S313.29,336.8,309.78,336.8
			z"/>
		<path d="M351.83,341.09c0,4.74-3.51,7.67-9.18,7.67h-4.87v6.22h-4.01v-21.57h8.87C348.32,333.42,351.83,336.31,351.83,341.09z
			 M347.8,341.09c0-2.71-1.82-4.28-5.33-4.28h-4.68v8.57h4.68C345.98,345.37,347.8,343.8,347.8,341.09z"/>
		<path d="M370.78,354.98l-4.41-6.32c-0.28,0.03-0.55,0.03-0.83,0.03h-4.87v6.29h-4.01v-21.57h8.87c5.67,0,9.18,2.9,9.18,7.67
			c0,3.27-1.66,5.67-4.59,6.81l4.96,7.09H370.78z M365.36,336.8h-4.68v8.6h4.68c3.51,0,5.33-1.6,5.33-4.31
			S368.87,336.8,365.36,336.8z"/>
		<path d="M380.02,333.42h4.01v21.57h-4.01V333.42z"/>
		<path d="M409.85,333.42v21.57h-3.3l-11.89-14.6v14.6h-3.97v-21.57h3.3l11.89,14.6v-14.6H409.85z"/>
		<path d="M420.85,336.8h-7.15v-3.39H432v3.39h-7.15v18.18h-4.01V336.8z"/>
		<path d="M183.03,389.67l1.39-3.11c1.73,1.39,4.47,2.37,7.12,2.37c3.36,0,4.78-1.2,4.78-2.8c0-4.65-12.82-1.6-12.82-9.61
			c0-3.48,2.77-6.44,8.69-6.44c2.59,0,5.3,0.68,7.18,1.91l-1.26,3.11c-1.94-1.14-4.07-1.69-5.95-1.69c-3.33,0-4.68,1.29-4.68,2.93
			c0,4.59,12.79,1.6,12.79,9.52c0,3.45-2.8,6.41-8.72,6.41C188.17,392.26,184.81,391.22,183.03,389.67z"/>
		<path d="M221.23,388.6v3.36h-16.18v-21.57h15.74v3.36h-11.74v5.61h10.41v3.3h-10.41v5.95H221.23z"/>
		<path d="M240.64,391.95l-4.41-6.32c-0.28,0.03-0.55,0.03-0.83,0.03h-4.87v6.29h-4.01v-21.57h8.87c5.67,0,9.18,2.9,9.18,7.67
			c0,3.27-1.66,5.67-4.59,6.81l4.96,7.09H240.64z M235.22,373.78h-4.68v8.6h4.68c3.51,0,5.33-1.6,5.33-4.31
			S238.73,373.78,235.22,373.78z"/>
		<path d="M269.6,370.39l-9.4,21.57h-3.94l-9.43-21.57h4.34l7.18,16.64l7.24-16.64H269.6z"/>
		<path d="M272.71,370.39h4.01v21.57h-4.01V370.39z"/>
		<path d="M281.83,381.17c0-6.44,4.93-11.09,11.55-11.09c3.51,0,6.53,1.26,8.53,3.6l-2.59,2.43c-1.57-1.69-3.51-2.53-5.76-2.53
			c-4.47,0-7.7,3.14-7.7,7.58s3.24,7.58,7.7,7.58c2.25,0,4.19-0.83,5.76-2.56l2.59,2.46c-2,2.34-5.02,3.6-8.57,3.6
			C286.76,392.26,281.83,387.61,281.83,381.17z"/>
		<path d="M322.78,388.6v3.36H306.6v-21.57h15.74v3.36h-11.74v5.61h10.41v3.3h-10.41v5.95H322.78z"/>
		<path d="M326.26,389.67l1.39-3.11c1.73,1.39,4.47,2.37,7.12,2.37c3.36,0,4.78-1.2,4.78-2.8c0-4.65-12.82-1.6-12.82-9.61
			c0-3.48,2.77-6.44,8.69-6.44c2.59,0,5.3,0.68,7.18,1.91l-1.26,3.11c-1.94-1.14-4.07-1.69-5.95-1.69c-3.33,0-4.68,1.29-4.68,2.93
			c0,4.59,12.79,1.6,12.79,9.52c0,3.45-2.8,6.41-8.72,6.41C331.41,392.26,328.05,391.22,326.26,389.67z"/>
	</g>
</g>
<path class="st4" d="M310.78,223.79c-11.13-10.81-16.7-23.38-16.7-37.92c0-8.52,1.86-16.36,5.61-23.52
	c-1.79-2.09-3.68-4.14-5.68-6.15c-18.67-18.67-41.07-27.9-67.6-27.9c-26.33,0-48.93,9.24-67.6,27.9
	c-18.67,18.67-27.9,41.07-27.9,67.6v87.01h4.81c9.09,0,17.03,3.72,23.48,10.97c6.61,7.25,9.92,16.18,9.92,26.41h-38.21v53.44
	c11,0,20.44-3.93,28.1-11.59c7.66-7.66,11.59-17.1,11.59-27.9V226.3h-10.73v-3.81h10.75c0.3-14.95,5.79-27.69,16.29-38.19
	c10.33-10.52,22.82-16,37.46-16.47v-9.3h0.17v-0.31h3.4v0.31h0.24v9.29c14.76,0.4,27.33,5.89,37.73,16.48
	c10.5,10.5,15.99,23.23,16.29,38.19h10.48v3.81h-10.51c-0.56,14.44-6.03,26.77-16.25,36.99c-10.39,10.39-22.97,15.87-37.73,16.28
	v11.77h-3.81V279.6h-3.07c-11,0-20.44,3.93-28.1,11.59c-7.66,7.66-11.4,17.1-11.59,28.1h44.8c10.22,0,20.04-1.57,29.47-4.52
	c14.74-4.91,27.31-12.77,38.12-23.38c16.63-16.63,25.77-36.39,27.57-59.12C317.67,229.81,314.07,226.98,310.78,223.79z"/>
<path class="st3" d="M224.37,181.19c-22.36,0.96-40.37,18.95-41.36,41.3h41.36V181.19z"/>
<path d="M269.48,226.3h-41.3v41.36C250.53,266.66,268.52,248.65,269.48,226.3z"/>
<path class="st0" d="M183.01,226.3c0.96,22.38,18.98,40.4,41.36,41.36V226.3H183.01z"/>
<path class="st4" d="M269.47,222.49c-0.99-22.33-18.97-40.31-41.29-41.3v41.3H269.47z"/>
</svg>
