<?xml version="1.0" encoding="utf-8"?>
<!-- Generator: Adobe Illustrator 24.1.0, SVG Export Plug-In . SVG Version: 6.00 Build 0)  -->
<svg version="1.1" id="Layer_1" xmlns="http://www.w3.org/2000/svg" xmlns:xlink="http://www.w3.org/1999/xlink" x="0px" y="0px"
	 viewBox="0 0 500.82 250.82" style="enable-background:new 0 0 500.82 250.82;" xml:space="preserve">
<style type="text/css">
	.st0{fill:#2E3192;}
	.st1{fill:#FFF200;}
	.st2{fill:#ED2024;}
	.st3{fill:#00AEEF;}
	.st4{fill:#EC008C;}
	.st5{fill:none;stroke:#000000;stroke-miterlimit:10;}
	.st6{fill:none;}
	.st7{font-family:'Montserrat-SemiBoldItalic';}
	.st8{font-size:24.1981px;}
	.st9{letter-spacing:2;}
</style>
<g>
	<g>
		<path class="st0" d="M96.42,167.46c-3.81-4.28-8.49-6.48-13.86-6.48h-2.84v22.06h22.55C102.28,177.01,100.33,171.74,96.42,167.46z
			"/>
	</g>
	<path class="st1" d="M246.39,109.64c-7.8-7.77-17.93-11.71-30.25-11.71c-6.98,0-12.59-4.75-12.59-10.67
		c0-5.91,5.61-10.55,12.59-10.55h12.59c8.35,0,15.33-2.78,20.95-8.23c4.52-4.29,6.71-9.39,6.71-15.19h-40.25
		c-11.09,0-20.67,3.36-28.47,9.97c-3.63,3.07-6.4,6.45-8.32,10.12c8.77,10.26,13.11,22.29,13.11,36.26c0,1.69-0.07,3.36-0.2,5
		c3.38,2.13,7.14,3.8,11.29,4.97c3.97,1.16,8.21,1.74,12.59,1.74c6.98,0,12.59,4.75,12.59,10.67s-5.61,10.67-12.59,10.67h-12.59
		c-7.53,0-14.1,2.32-19.44,6.84c-5.34,4.52-8.08,10.09-8.08,16.47h40.11c11.09,0,20.67-3.36,28.47-9.97
		c7.8-6.61,11.77-14.61,11.77-24.01C256.38,123.44,253.1,116.02,246.39,109.64z"/>
	<path class="st2" d="M179.34,73.38c-2.22,4.23-3.31,8.86-3.31,13.88c0,8.58,3.29,16,9.86,22.38c1.94,1.88,4.07,3.55,6.37,5
		c0.13-1.64,0.2-3.31,0.2-5C192.45,95.66,188.1,83.63,179.34,73.38z"/>
	<path class="st3" d="M73.69,160.99c-0.07,0-0.15,0-0.22,0c-4.01-0.03-7.22-3.33-7.22-7.34v-25.37v-22.17V55.1
		c0-5.23-2.32-9.72-6.84-13.36c-4.26-3.43-9.45-5.29-15.37-5.49c-0.36-0.01-0.73-0.02-1.09-0.02v126.42c0,5.14,2.32,9.62,6.84,13.27
		c0.24,0.19,0.48,0.38,0.73,0.56c2.23,1.66,4.7,2.91,7.38,3.74c4.88,1.88,10.15,2.83,15.8,2.83h6.04v-22.06H73.69z"/>
	<path class="st4" d="M185.88,109.64c-6.57-6.38-9.86-13.8-9.86-22.38c0-5.03,1.1-9.65,3.31-13.88c-1.06-1.24-2.17-2.45-3.35-3.63
		c-11.02-11.02-24.24-16.47-39.89-16.47c-15.54,0-28.88,5.45-39.89,16.47c-11.02,11.02-16.47,24.24-16.47,39.89v51.35h2.84
		c5.37,0,10.05,2.2,13.86,6.48c3.9,4.28,5.86,9.55,5.86,15.59H79.73v31.54c6.49,0,12.06-2.32,16.58-6.84s6.84-10.09,6.84-16.47
		v-80.16h-6.33v-2.25h6.34c0.18-8.83,3.41-16.34,9.61-22.54c6.1-6.21,13.47-9.44,22.11-9.72v-5.49h0.1v-0.18h2.01v0.18h0.14v5.48
		c8.71,0.24,16.13,3.48,22.27,9.72c6.2,6.2,9.43,13.71,9.61,22.54h6.18v2.25h-6.21c-0.33,8.52-3.56,15.8-9.59,21.83
		c-6.13,6.13-13.56,9.37-22.27,9.61v6.94h-2.25v-6.93h-1.81c-6.49,0-12.06,2.32-16.58,6.84c-4.52,4.52-6.73,10.09-6.84,16.58h26.44
		c6.03,0,11.83-0.93,17.4-2.67c8.7-2.9,16.12-7.54,22.5-13.8c9.82-9.82,15.21-21.47,16.27-34.89
		C189.95,113.19,187.82,111.52,185.88,109.64z"/>
	<path class="st3" d="M134.88,84.49c-13.2,0.57-23.82,11.18-24.41,24.37h24.41V84.49z"/>
	<path d="M161.5,111.11h-24.37v24.41C150.32,134.94,160.94,124.31,161.5,111.11z"/>
	<path class="st1" d="M110.47,111.11c0.57,13.21,11.2,23.84,24.41,24.41v-24.41H110.47z"/>
	<path class="st4" d="M161.5,108.87c-0.58-13.18-11.19-23.79-24.37-24.37v24.37H161.5z"/>
	<rect x="143.7" y="190.37" class="st6" width="280.23" height="23.55"/>
	<text transform="matrix(1 0 0 1 150.1368 210.9434)" class="st7 st8 st9">PRINT MADE EASY</text>
	<g>
		<path d="M272.14,53.89h4.69v21.29h13.2v3.97h-17.89V53.89z"/>
		<path d="M313.66,75.21v3.93h-18.94V53.89h18.44v3.93h-13.75v6.57h12.2v3.86h-12.2v6.96H313.66z"/>
		<path d="M342.31,53.89v25.26h-3.86l-13.93-17.1v17.1h-4.65V53.89h3.86l13.93,17.1v-17.1H342.31z"/>
		<path d="M372.5,53.89v25.26h-3.86l-13.93-17.1v17.1h-4.65V53.89h3.86l13.93,17.1v-17.1H372.5z"/>
		<path d="M396.63,73.3H384l-2.49,5.84h-4.84l11.37-25.26h4.62l11.4,25.26h-4.91L396.63,73.3z M395.08,69.62l-4.76-11.04
			l-4.72,11.04H395.08z"/>
		<path d="M424.77,79.14l-5.16-7.4c-0.32,0.04-0.65,0.04-0.97,0.04h-5.7v7.36h-4.69V53.89h10.39c6.64,0,10.75,3.39,10.75,8.98
			c0,3.82-1.95,6.64-5.38,7.97l5.81,8.3H424.77z M418.42,57.85h-5.48v10.07h5.48c4.11,0,6.24-1.88,6.24-5.05
			C424.66,59.69,422.53,57.85,418.42,57.85z"/>
		<path d="M293.28,106.16c0,5.56-4.11,8.98-10.75,8.98h-5.7v7.29h-4.69V97.17h10.39C289.17,97.17,293.28,100.56,293.28,106.16z
			 M288.56,106.16c0-3.17-2.13-5.02-6.24-5.02h-5.48v10.03h5.48C286.43,111.17,288.56,109.33,288.56,106.16z"/>
		<path d="M315.47,122.43l-5.16-7.4c-0.32,0.04-0.65,0.04-0.97,0.04h-5.7v7.36h-4.69V97.17h10.39c6.64,0,10.75,3.39,10.75,8.98
			c0,3.82-1.95,6.64-5.38,7.97l5.81,8.3H315.47z M309.12,101.14h-5.48v10.07h5.48c4.11,0,6.24-1.88,6.24-5.05
			C315.36,102.98,313.23,101.14,309.12,101.14z"/>
		<path d="M326.29,97.17h4.69v25.26h-4.69V97.17z"/>
		<path d="M361.2,97.17v25.26h-3.86l-13.93-17.1v17.1h-4.65V97.17h3.86l13.93,17.1v-17.1H361.2z"/>
		<path d="M374.08,101.14h-8.37v-3.97h21.43v3.97h-8.37v21.29h-4.69V101.14z"/>
		<path d="M270.01,163.05l1.62-3.64c2.02,1.62,5.23,2.78,8.33,2.78c3.93,0,5.59-1.41,5.59-3.28c0-5.45-15.01-1.88-15.01-11.26
			c0-4.08,3.25-7.54,10.17-7.54c3.03,0,6.21,0.79,8.41,2.24l-1.48,3.64c-2.27-1.34-4.76-1.98-6.96-1.98c-3.9,0-5.49,1.52-5.49,3.43
			c0,5.38,14.98,1.88,14.98,11.15c0,4.04-3.28,7.5-10.21,7.5C276.04,166.08,272.1,164.85,270.01,163.05z"/>
		<path d="M314.75,161.78v3.93H295.8v-25.26h18.44v3.93h-13.75v6.57h12.2v3.86h-12.2v6.96H314.75z"/>
		<path d="M337.47,165.72l-5.16-7.4c-0.32,0.04-0.65,0.04-0.97,0.04h-5.7v7.36h-4.69v-25.26h10.39c6.64,0,10.75,3.39,10.75,8.98
			c0,3.82-1.95,6.64-5.38,7.97l5.81,8.3H337.47z M331.12,144.43h-5.48v10.07h5.48c4.11,0,6.24-1.88,6.24-5.05
			C337.36,146.27,335.23,144.43,331.12,144.43z"/>
		<path d="M371.38,140.46l-11,25.26h-4.62l-11.04-25.26h5.09l8.41,19.48l8.48-19.48H371.38z"/>
		<path d="M375.02,140.46h4.69v25.26h-4.69V140.46z"/>
		<path d="M385.69,153.09c0-7.54,5.77-12.99,13.53-12.99c4.11,0,7.65,1.48,9.99,4.22l-3.03,2.85c-1.84-1.99-4.11-2.96-6.75-2.96
			c-5.23,0-9.02,3.68-9.02,8.88s3.79,8.88,9.02,8.88c2.64,0,4.91-0.97,6.75-2.99l3.03,2.89c-2.34,2.74-5.88,4.22-10.03,4.22
			C391.47,166.08,385.69,160.63,385.69,153.09z"/>
		<path d="M433.64,161.78v3.93H414.7v-25.26h18.44v3.93h-13.75v6.57h12.2v3.86h-12.2v6.96H433.64z"/>
		<path d="M437.71,163.05l1.62-3.64c2.02,1.62,5.23,2.78,8.34,2.78c3.93,0,5.59-1.41,5.59-3.28c0-5.45-15.01-1.88-15.01-11.26
			c0-4.08,3.25-7.54,10.17-7.54c3.03,0,6.21,0.79,8.41,2.24l-1.48,3.64c-2.27-1.34-4.76-1.98-6.96-1.98c-3.9,0-5.49,1.52-5.49,3.43
			c0,5.38,14.98,1.88,14.98,11.15c0,4.04-3.28,7.5-10.21,7.5C443.74,166.08,439.8,164.85,437.71,163.05z"/>
	</g>
	<line class="st5" x1="110.43" y1="182.48" x2="457.2" y2="182.48"/>
</g>
</svg>
